<?xml version="1.0" standalone="no"?>
<!DOCTYPE svg PUBLIC "-//W3C//DTD SVG 20010904//EN"
 "http://www.w3.org/TR/2001/REC-SVG-20010904/DTD/svg10.dtd">
<svg version="1.0" xmlns="http://www.w3.org/2000/svg"
 width="512.000000pt" height="512.000000pt" viewBox="0 0 512.000000 512.000000"
 preserveAspectRatio="xMidYMid meet">
<metadata>
Created by potrace 1.14, written by Peter Selinger 2001-2017
</metadata>
<g transform="translate(0.000000,512.000000) scale(0.100000,-0.100000)"
fill="#000000" stroke="none">
<path d="M2522 4948 c-14 -7 -67 -89 -141 -217 -65 -113 -128 -222 -139 -241
-11 -19 -67 -117 -123 -218 l-103 -182 -47 -14 c-77 -23 -227 -87 -302 -128
l-70 -38 -85 85 c-87 88 -111 102 -149 88 -12 -5 -100 -83 -195 -174 -95 -91
-195 -187 -223 -213 -197 -187 -208 -200 -196 -243 3 -12 46 -62 94 -112 l88
-89 -45 -84 c-51 -94 -114 -251 -141 -350 -10 -38 -21 -69 -24 -69 -3 -1 -66
-2 -140 -3 -132 -1 -133 -2 -157 -29 l-24 -28 0 -409 0 -409 24 -28 24 -27
143 -2 c79 -1 147 -2 150 -3 4 0 18 -38 32 -83 15 -46 57 -145 95 -220 l68
-137 -103 -97 c-105 -98 -123 -128 -107 -171 5 -13 139 -154 298 -313 308
-309 311 -311 366 -273 14 9 34 26 46 37 11 12 54 54 95 94 l75 72 109 -54
c112 -55 244 -106 326 -126 l46 -12 0 -161 1 -161 26 -23 27 -23 420 0 420 0
24 25 c27 26 27 22 27 210 l1 130 131 43 c72 23 171 63 221 87 l89 44 110
-110 c60 -60 119 -112 130 -115 44 -11 33 -20 457 386 26 25 77 74 115 110 76
73 93 99 87 134 -3 13 -51 69 -108 126 l-103 102 77 152 c43 83 90 191 107
241 l29 90 149 0 148 0 24 28 24 28 0 409 0 409 -24 27 c-23 28 -24 28 -161
29 l-137 1 -44 134 c-24 74 -66 180 -93 234 l-48 99 93 90 c79 76 94 96 94
121 0 17 -4 37 -9 45 -5 7 -138 143 -296 302 -255 256 -292 289 -320 289 -31
0 -51 -15 -165 -126 l-46 -44 -134 68 c-74 37 -180 83 -236 102 l-101 34 -233
415 c-127 229 -241 424 -252 434 -23 19 -52 21 -86 5z m59 -265 c7 -16 132
-239 278 -498 389 -692 385 -685 409 -745 37 -95 52 -169 54 -263 6 -305 -215
-538 -570 -601 -77 -14 -330 -14 -402 -1 -353 64 -553 267 -551 558 1 183 46
313 215 623 202 370 536 954 546 954 4 0 13 -12 21 -27z m-1109 -873 c63 -62
88 -80 110 -80 16 0 68 23 121 53 50 29 115 62 143 74 l52 21 -32 -57 c-150
-267 -218 -458 -225 -640 -2 -47 -8 -69 -23 -85 -147 -155 -266 -407 -302
-639 -12 -82 -14 -281 -2 -337 3 -14 9 -41 12 -60 13 -76 58 -210 104 -305
207 -432 648 -708 1130 -707 342 1 646 127 890 372 334 333 449 814 301 1253
-43 126 -133 291 -198 362 -64 71 -71 84 -72 139 -1 88 -10 152 -37 243 -28
97 -51 145 -153 326 -40 71 -71 130 -69 132 6 6 200 -90 262 -130 49 -31 71
-39 106 -36 8 0 53 36 100 80 l85 78 212 -213 c117 -118 213 -218 213 -222 0
-4 -38 -45 -85 -91 -56 -55 -85 -91 -85 -106 0 -12 31 -82 68 -156 63 -125
110 -251 146 -393 24 -95 32 -100 186 -100 l130 -1 0 -305 0 -305 -140 0
c-169 -1 -166 1 -205 -130 -36 -120 -88 -242 -148 -345 -81 -137 -96 -168 -90
-191 3 -11 50 -65 103 -120 l98 -99 -190 -182 c-105 -101 -203 -195 -219 -210
-15 -16 -31 -28 -35 -28 -4 0 -51 45 -105 99 -64 65 -108 101 -127 106 -24 5
-51 -5 -135 -48 -125 -65 -230 -106 -347 -136 -103 -27 -125 -37 -138 -65 -5
-12 -10 -80 -10 -151 0 -72 -1 -136 -1 -142 -1 -10 -70 -13 -311 -13 l-310 0
-1 28 c0 15 -1 79 -1 141 0 140 -9 165 -71 182 -87 23 -243 71 -272 84 -16 8
-47 21 -68 29 -21 9 -79 38 -128 66 -49 27 -101 50 -117 50 -21 0 -52 -23
-137 -104 l-109 -104 -217 216 -217 217 104 102 c81 80 104 109 104 129 0 15
-20 61 -45 103 -66 113 -128 252 -165 371 -18 58 -41 114 -51 124 -16 18 -33
20 -156 21 l-138 0 -3 305 -2 305 130 0 c159 1 161 1 196 136 47 175 105 317
188 455 54 90 51 104 -48 207 l-84 86 201 193 c110 106 208 201 216 210 9 9
20 17 24 17 5 1 45 -35 89 -79z m2012 -952 c117 -184 170 -362 169 -568 0
-176 -33 -312 -113 -475 -202 -412 -634 -648 -1100 -602 -364 37 -695 268
-862 602 -144 287 -148 645 -11 919 36 72 93 166 101 166 4 0 16 -21 26 -48
71 -175 233 -315 451 -390 57 -19 80 -25 150 -38 161 -29 392 -27 533 4 267
61 476 208 570 403 20 43 40 78 45 78 4 1 22 -23 41 -51z"/>
<path d="M2996 3328 c-17 -16 -27 -36 -30 -66 -17 -165 -195 -296 -409 -301
-36 -1 -77 -45 -77 -81 0 -15 9 -38 19 -51 18 -22 27 -24 98 -23 175 3 356
100 455 242 46 66 62 111 74 208 10 78 -72 123 -130 72z"/>
</g>
</svg>
