<?xml version="1.0" standalone="no"?>
<!DOCTYPE svg PUBLIC "-//W3C//DTD SVG 20010904//EN"
 "http://www.w3.org/TR/2001/REC-SVG-20010904/DTD/svg10.dtd">
<svg version="1.0" xmlns="http://www.w3.org/2000/svg"
 width="500.000000pt" height="500.000000pt" viewBox="0 0 500.000000 500.000000"
 preserveAspectRatio="xMidYMid meet">
<metadata>
Created by potrace 1.14, written by Peter Selinger 2001-2017
</metadata>
<g transform="translate(0.000000,500.000000) scale(0.100000,-0.100000)"
fill="#000000" stroke="none">
<path d="M2211 4921 c-1 -7 -7 -11 -16 -7 -8 3 -15 0 -15 -7 0 -8 -4 -7 -10 3
-8 12 -10 12 -16 -3 -3 -9 -10 -14 -15 -11 -5 3 -7 11 -3 17 3 7 -2 3 -10 -7
-11 -14 -16 -15 -16 -6 0 11 -3 11 -12 2 -16 -16 -31 -15 -22 1 6 10 4 10 -7
0 -7 -7 -21 -13 -31 -13 -10 0 -18 -6 -18 -12 0 -9 -3 -8 -10 2 -7 12 -12 12
-22 2 -15 -15 -42 -16 -32 0 4 7 3 8 -4 4 -7 -4 -12 -15 -12 -24 0 -12 -3 -13
-8 -5 -4 7 -13 9 -21 4 -7 -5 -22 -6 -34 -3 -12 3 -18 1 -14 -5 10 -16 -18
-24 -33 -10 -9 9 -11 9 -7 1 9 -15 -11 -23 -47 -19 -20 3 -26 0 -22 -10 3 -9
-2 -12 -16 -10 -12 3 -27 0 -35 -6 -7 -7 -13 -8 -13 -3 0 5 -7 0 -16 -11 -13
-17 -16 -18 -24 -5 -8 12 -10 12 -10 1 0 -8 -6 -11 -16 -7 -8 3 -12 2 -9 -4 6
-10 -1 -14 -48 -24 -15 -4 -25 -11 -22 -16 3 -6 -1 -7 -9 -4 -9 4 -16 1 -16
-6 0 -10 -3 -10 -15 0 -13 10 -15 9 -15 -11 0 -19 -2 -21 -10 -9 -8 12 -10 12
-16 -4 -5 -14 -9 -15 -15 -4 -7 11 -9 11 -9 -1 0 -8 -6 -11 -16 -7 -8 3 -13 2
-10 -3 5 -8 -29 -25 -46 -22 -8 1 -12 -15 -9 -32 1 -4 -8 -3 -19 3 -14 7 -20
8 -20 0 0 -9 -41 -32 -62 -34 -3 -1 -18 -14 -33 -31 -18 -21 -24 -24 -18 -10
5 15 -2 11 -26 -13 -18 -17 -37 -30 -42 -26 -5 3 -9 -3 -9 -13 0 -15 -2 -16
-10 -3 -8 13 -10 13 -10 -2 0 -9 -5 -20 -12 -24 -7 -5 -9 -2 -4 7 4 8 0 5 -8
-5 -9 -11 -16 -16 -16 -11 0 4 -11 -4 -25 -19 -14 -15 -30 -24 -35 -21 -6 4
-9 1 -8 -7 2 -7 -3 -12 -9 -11 -7 2 -13 -2 -13 -8 0 -5 -4 -7 -10 -4 -6 4 -7
-1 -3 -12 3 -10 3 -15 -2 -11 -4 4 -14 0 -22 -10 -8 -9 -11 -11 -7 -3 5 10 3
12 -5 7 -7 -5 -10 -15 -7 -23 4 -11 2 -13 -9 -9 -8 3 -15 1 -15 -5 0 -6 -5 -7
-12 -3 -7 4 -8 3 -4 -5 4 -6 0 -14 -8 -17 -9 -3 -16 -14 -16 -23 0 -14 -2 -14
-10 -1 -8 13 -10 12 -10 -2 0 -10 -7 -18 -15 -18 -8 0 -15 -5 -15 -11 0 -5 5
-7 12 -3 7 4 8 3 4 -5 -4 -6 -12 -9 -17 -6 -5 4 -9 1 -9 -6 0 -7 -3 -9 -7 -6
-3 4 -11 -3 -18 -16 -6 -12 -17 -21 -24 -19 -7 1 -10 -2 -7 -7 3 -5 -1 -11 -9
-15 -8 -3 -15 -10 -15 -16 0 -17 -26 -40 -35 -32 -5 4 -5 -1 -2 -10 5 -13 1
-18 -13 -18 -13 0 -18 -5 -13 -15 3 -10 0 -15 -8 -13 -7 2 -13 -4 -14 -12 -1
-8 -6 -14 -12 -13 -7 2 -10 -6 -8 -17 3 -13 -1 -17 -11 -13 -9 3 -14 -1 -14
-11 0 -9 -7 -19 -15 -22 -8 -4 -13 -10 -10 -14 3 -5 -5 -16 -17 -24 -12 -9
-19 -18 -15 -22 7 -7 -15 -34 -24 -28 -4 2 -10 -3 -13 -12 -4 -10 -2 -13 7 -9
6 4 4 0 -5 -8 -10 -8 -15 -17 -11 -20 3 -4 1 -7 -5 -7 -7 0 -12 -7 -12 -15 0
-8 -4 -15 -10 -15 -5 0 -10 -7 -10 -15 0 -8 -5 -15 -11 -15 -6 0 -9 -7 -6 -14
4 -10 1 -13 -9 -9 -9 3 -14 -2 -14 -15 0 -12 -5 -24 -10 -27 -6 -4 -8 -11 -5
-16 4 -5 -2 -6 -11 -2 -13 5 -16 3 -11 -10 4 -10 -4 -29 -21 -49 -15 -18 -21
-28 -13 -24 9 6 8 -1 -5 -23 -10 -17 -22 -31 -26 -31 -4 0 -5 -9 -3 -20 2 -11
0 -18 -6 -15 -8 6 -13 -11 -12 -42 1 -7 -3 -11 -7 -8 -8 5 -25 -42 -22 -57 1
-5 -3 -8 -9 -8 -6 0 -9 -7 -5 -15 3 -8 2 -15 -2 -15 -4 0 -12 -11 -19 -25 -6
-14 -7 -23 -2 -19 5 3 9 1 9 -4 0 -6 -7 -12 -15 -15 -8 -4 -12 -15 -10 -27 3
-13 0 -18 -7 -14 -7 5 -9 1 -5 -9 3 -10 3 -17 -2 -17 -7 0 -11 -15 -12 -52 0
-10 -6 -18 -12 -18 -7 0 -6 -4 3 -10 13 -8 12 -10 -4 -10 -15 0 -16 -3 -6 -15
10 -12 10 -15 0 -15 -9 0 -9 -4 1 -17 10 -11 10 -14 2 -9 -9 5 -13 0 -13 -13
0 -12 -6 -21 -12 -21 -9 0 -8 -4 2 -10 13 -9 13 -10 0 -10 -13 0 -13 -1 0 -10
11 -7 11 -10 2 -10 -7 0 -10 -4 -7 -10 3 -5 1 -10 -5 -10 -8 0 -8 -6 0 -19 8
-16 6 -22 -7 -30 -11 -6 -13 -11 -5 -11 10 0 10 -5 2 -20 -6 -11 -8 -20 -4
-20 3 0 2 -6 -4 -13 -7 -8 -7 -18 -2 -27 5 -8 4 -22 -2 -33 -7 -14 -7 -17 1
-13 8 5 8 0 2 -17 -5 -13 -8 -36 -7 -51 2 -15 0 -29 -5 -31 -4 -3 -8 -13 -7
-23 2 -89 -6 -172 -16 -172 -6 0 -5 -4 3 -9 9 -6 12 -21 9 -45 -2 -21 0 -36 7
-36 5 0 3 -5 -5 -10 -8 -5 -10 -10 -5 -10 7 0 9 -14 7 -34 -2 -18 1 -44 8 -56
8 -15 8 -20 1 -16 -6 4 -11 3 -11 -3 0 -5 5 -13 10 -16 8 -5 7 -11 -1 -21 -9
-11 -8 -14 7 -15 11 0 14 -3 7 -5 -7 -3 -10 -11 -8 -17 14 -47 15 -68 3 -61
-7 4 -4 -2 6 -14 11 -12 16 -25 13 -29 -4 -3 -2 -12 4 -20 8 -9 8 -13 1 -13
-6 0 -9 -7 -6 -15 4 -8 10 -12 15 -9 5 3 5 -5 0 -19 -5 -14 -6 -28 -1 -33 4
-5 10 -20 12 -34 1 -14 10 -30 18 -37 13 -11 13 -12 0 -13 -12 0 -10 -4 4 -15
11 -8 14 -15 8 -15 -10 0 -10 -5 -2 -21 7 -11 9 -27 6 -35 -3 -7 -2 -13 2 -11
4 1 8 -2 10 -8 2 -5 11 -19 20 -29 9 -11 11 -16 5 -12 -7 4 -13 2 -13 -3 0 -6
5 -11 11 -11 5 0 8 -4 4 -9 -3 -5 0 -15 7 -23 15 -16 21 -34 22 -65 1 -12 6
-21 11 -20 6 1 9 -4 8 -10 -2 -7 2 -13 8 -13 5 0 7 -4 4 -10 -3 -5 -2 -10 4
-10 5 0 8 -9 6 -21 -3 -16 0 -19 13 -14 9 3 13 3 9 -1 -4 -4 -1 -14 6 -22 10
-13 9 -14 -1 -8 -11 7 -12 4 -3 -13 7 -11 16 -21 22 -21 6 0 8 -4 4 -9 -3 -5
-1 -12 4 -16 6 -3 7 -13 4 -23 -3 -9 -3 -14 1 -10 11 10 34 -14 29 -29 -3 -7
2 -16 11 -19 9 -3 16 -10 16 -16 0 -5 -5 -6 -12 -2 -7 4 -8 3 -4 -4 4 -7 15
-12 24 -12 15 0 15 -2 2 -10 -13 -8 -12 -10 4 -10 11 0 16 -3 13 -7 -4 -3 1
-15 10 -26 13 -15 14 -18 3 -12 -8 5 0 -6 17 -23 30 -29 38 -43 34 -64 0 -5 6
-8 14 -8 8 0 15 -9 15 -21 0 -11 4 -17 10 -14 5 3 10 1 10 -4 0 -22 2 -26 16
-34 8 -5 12 -13 8 -18 -3 -5 -2 -9 3 -8 22 4 33 -3 33 -21 0 -11 9 -25 20 -32
11 -7 20 -19 20 -26 0 -7 4 -10 10 -7 5 3 10 -3 10 -14 0 -12 7 -21 16 -21 8
0 13 -4 10 -9 -3 -5 3 -11 14 -14 11 -3 20 -12 20 -21 0 -9 5 -16 10 -16 6 0
10 -7 10 -15 0 -8 7 -15 15 -15 9 0 18 -7 21 -15 4 -8 10 -12 15 -9 5 3 9 0 9
-5 0 -16 37 -50 46 -43 4 4 4 -1 1 -10 -3 -10 -1 -20 5 -24 7 -4 8 -3 4 4 -4
7 -1 12 8 12 9 0 15 -3 13 -8 -3 -9 46 -58 55 -55 5 2 8 -4 8 -13 0 -10 5 -14
16 -10 8 3 12 2 9 -4 -3 -6 -3 -10 2 -10 12 0 70 -53 76 -70 3 -8 6 -10 6 -3
1 7 8 10 17 6 12 -4 13 -8 3 -14 -9 -5 -5 -10 13 -14 15 -4 29 -13 32 -22 3
-8 10 -11 16 -8 5 3 10 1 10 -6 0 -7 3 -10 6 -6 4 3 15 -4 26 -16 11 -12 17
-15 13 -7 -4 9 0 7 9 -4 8 -10 19 -15 25 -12 5 4 13 1 17 -5 5 -8 3 -9 -6 -4
-9 5 -11 4 -6 -3 4 -7 14 -12 22 -12 8 0 14 -5 14 -11 0 -5 4 -7 10 -4 5 3 10
-2 10 -12 0 -14 2 -15 9 -5 6 11 11 10 25 -3 9 -9 16 -13 16 -8 0 4 4 4 8 -2
13 -19 57 -51 47 -35 -6 9 -3 8 7 -2 12 -13 18 -15 21 -6 4 10 6 10 6 1 1 -7
9 -13 19 -13 10 0 24 -9 32 -20 10 -14 16 -16 22 -7 6 9 8 9 8 -1 0 -7 4 -10
10 -7 5 3 10 1 10 -5 0 -6 4 -8 10 -5 5 3 10 -2 10 -12 0 -15 2 -16 10 -3 6 9
10 11 10 3 0 -7 7 -10 17 -6 11 4 14 3 9 -5 -9 -15 16 -16 31 -1 9 9 10 6 6
-12 -6 -21 -5 -23 10 -10 14 11 18 11 23 -3 4 -11 13 -15 26 -10 14 4 18 2 14
-5 -7 -10 6 -16 28 -12 4 1 15 -4 24 -11 10 -8 13 -9 9 -1 -5 8 -1 8 18 0 14
-7 25 -16 25 -22 0 -5 5 -3 10 5 6 10 10 11 10 3 0 -7 9 -13 21 -13 11 0 18
-4 15 -9 -8 -12 27 -8 36 4 5 6 8 6 8 -2 0 -6 9 -10 19 -8 15 3 18 -1 14 -13
-5 -13 -3 -14 7 -5 14 13 35 8 65 -16 19 -15 19 -15 5 4 -15 19 -15 19 14 1
16 -10 25 -13 22 -7 -4 6 -2 11 3 11 6 0 11 -4 11 -10 0 -5 7 -10 16 -10 9 0
12 5 8 13 -6 10 -4 10 7 0 7 -7 21 -13 32 -13 12 0 16 -4 11 -13 -5 -8 -2 -8
9 2 14 11 17 11 17 0 0 -10 3 -10 12 -1 17 17 31 15 24 -4 -4 -10 -2 -13 7 -7
16 10 48 10 69 1 10 -5 18 -3 21 5 3 6 6 7 6 1 1 -10 52 -11 68 -1 5 3 15 1
23 -5 12 -8 11 -8 -5 -3 -15 5 -17 3 -8 -6 7 -7 17 -8 25 -3 7 5 27 10 43 10
17 1 35 3 40 4 22 5 36 -1 29 -13 -4 -7 1 -6 12 3 21 17 42 19 62 7 7 -5 12
-3 12 4 0 8 5 7 17 -2 9 -8 14 -9 10 -3 -4 7 2 12 18 12 15 0 22 -5 18 -11 -3
-6 4 -3 18 6 30 22 39 21 40 0 0 -15 2 -15 7 -3 4 8 15 16 26 18 12 2 16 -1
10 -10 -4 -7 1 -6 12 3 10 9 24 14 31 12 6 -2 14 1 18 6 4 8 12 8 27 0 15 -8
19 -8 14 0 -4 6 -2 11 3 11 6 0 11 -6 11 -12 0 -10 3 -9 9 1 5 7 14 10 20 7 6
-4 11 0 11 9 0 9 5 13 10 10 6 -4 7 -12 3 -18 -5 -8 -2 -8 9 0 8 7 19 9 23 5
5 -4 5 -2 2 4 -9 16 18 25 32 11 8 -8 11 -8 11 1 0 7 5 12 11 12 5 0 7 -6 3
-12 -6 -10 -5 -10 8 -1 8 7 19 9 23 5 5 -4 5 -1 0 7 -6 11 -2 13 18 9 15 -3
24 -1 21 3 -5 8 13 13 44 12 6 -1 12 4 12 9 0 6 6 5 15 -2 12 -10 16 -9 21 4
3 9 10 13 15 10 5 -3 9 0 9 6 0 8 6 7 21 -1 15 -8 19 -8 15 0 -4 6 -2 11 4 11
6 0 9 4 6 9 -3 4 7 8 22 7 17 -1 26 4 24 12 -2 10 2 10 17 2 13 -7 22 -7 26 0
4 6 12 7 18 3 8 -4 8 -2 -1 9 -11 14 -9 15 18 13 23 -2 38 5 57 24 14 14 22
20 19 14 -4 -7 -2 -13 3 -13 6 0 11 5 11 11 0 6 7 9 14 6 11 -4 13 -1 9 10 -4
11 -2 14 5 9 6 -4 22 0 35 9 13 8 27 12 32 8 4 -5 5 1 1 11 -5 15 -4 17 8 7
11 -9 15 -8 20 4 3 8 13 15 21 15 9 0 13 4 10 10 -4 6 1 7 11 3 13 -5 15 -3 9
7 -6 10 -4 12 8 7 12 -4 17 -1 17 10 0 13 3 13 18 2 9 -7 14 -9 10 -5 -12 14
11 36 29 29 11 -4 14 -2 9 5 -4 7 -2 12 4 12 6 0 8 4 5 10 -4 6 1 7 11 3 13
-5 15 -3 9 8 -7 11 -5 11 10 -1 11 -9 16 -10 11 -2 -4 7 0 15 11 19 10 4 24
15 32 26 7 10 18 16 25 14 14 -6 37 18 28 29 -4 4 1 4 11 1 10 -4 16 -3 13 2
-3 5 2 15 11 22 11 10 14 10 9 2 -5 -9 -2 -11 8 -7 9 3 13 10 10 15 -3 5 6 13
20 19 14 5 26 14 26 20 0 6 4 8 10 5 6 -3 7 1 4 10 -4 10 -2 15 7 13 8 -2 13
2 12 9 -2 7 6 10 17 8 13 -2 17 1 14 10 -4 9 6 21 24 32 16 10 30 23 31 28 0
6 7 10 14 10 6 0 11 8 11 18 -1 9 2 14 7 11 5 -3 9 0 9 6 0 6 5 8 11 5 6 -4
13 2 16 14 3 11 9 18 14 15 8 -5 13 9 10 28 0 4 5 5 13 2 8 -3 17 0 22 7 5 8
3 10 -7 4 -8 -4 1 6 19 23 17 17 32 36 32 42 0 6 5 8 10 5 9 -6 14 8 11 27 0
5 7 8 16 8 9 0 14 3 11 6 -4 3 7 18 23 33 22 22 26 30 16 40 -9 10 -8 11 7 5
15 -6 18 -4 13 9 -4 11 -2 14 8 11 10 -4 13 0 10 15 -2 11 1 24 7 27 7 4 8 2
4 -4 -4 -7 -2 -12 3 -12 6 0 11 7 11 15 0 8 4 15 10 15 5 0 9 6 7 13 -1 6 3
11 10 10 7 -2 10 4 7 12 -4 8 -1 15 6 15 6 0 9 4 6 9 -3 5 1 12 10 15 8 3 13
10 10 15 -3 5 1 12 10 15 9 4 14 9 11 13 -4 3 0 11 9 17 8 6 16 21 17 33 0 12
4 21 7 20 3 -1 5 1 5 4 0 4 9 17 20 30 13 14 14 20 5 15 -8 -4 -5 1 7 12 12
11 19 22 16 26 -3 3 0 12 6 20 7 8 10 20 6 26 -4 6 -1 9 7 8 7 -2 12 3 11 10
-2 6 2 12 8 12 5 0 8 4 5 9 -3 5 1 12 10 15 8 3 13 10 10 15 -7 11 13 71 25
71 4 0 6 6 3 14 -3 8 -1 17 5 21 16 9 14 38 -2 30 -6 -4 -3 2 9 12 11 10 19
24 17 30 -2 6 1 14 6 18 6 3 11 17 11 31 0 14 4 22 10 19 5 -3 7 0 4 8 -3 8 0
18 5 22 6 3 9 11 5 16 -3 5 0 17 8 26 11 14 11 16 -2 8 -11 -6 -10 -3 3 12 9
11 17 24 17 29 0 5 -5 2 -10 -6 -8 -12 -10 -12 -10 -1 0 8 8 20 18 28 16 14
16 14 -1 9 -16 -5 -16 -4 0 20 13 20 14 27 4 34 -11 6 -11 8 -1 12 7 2 14 22
16 43 1 22 7 41 14 43 7 3 4 9 -7 18 -17 13 -17 14 0 8 20 -7 21 -1 6 28 -7
13 -7 18 -1 14 6 -4 11 2 11 11 0 10 2 30 4 46 2 15 0 27 -6 27 -6 0 -2 7 9
16 10 8 13 13 7 9 -9 -4 -13 1 -13 14 0 12 5 21 11 21 8 0 8 5 -1 15 -10 12
-10 15 0 15 9 0 9 4 -1 17 -10 11 -10 14 -1 9 7 -4 12 -1 12 9 0 10 -4 13 -12
8 -8 -4 -7 3 3 17 17 27 14 54 -4 43 -8 -5 -8 -2 0 8 10 12 10 18 0 29 -7 8
-7 10 -1 7 13 -8 13 80 1 101 -5 6 -4 12 2 12 7 0 6 10 -1 30 -8 23 -7 34 3
47 8 10 9 14 2 10 -6 -4 -14 -3 -18 3 -3 5 -3 10 2 10 4 0 8 11 8 25 0 14 -3
25 -7 25 -4 0 -5 7 -1 16 3 9 0 20 -8 25 -12 7 -12 9 1 9 13 0 13 1 0 10 -9 6
-10 10 -3 10 8 0 9 9 3 29 -4 16 -5 33 -2 37 4 4 1 4 -5 0 -9 -5 -13 0 -13 14
0 14 4 19 13 15 6 -4 5 -1 -3 7 -8 7 -15 27 -14 45 1 18 -3 30 -7 27 -5 -3
-10 7 -11 23 0 15 -2 34 -2 41 -1 7 -8 17 -16 22 -11 7 -11 10 -2 10 9 0 10 5
3 19 -6 10 -7 22 -3 26 4 5 1 5 -5 1 -9 -5 -13 3 -13 28 0 19 -4 38 -10 41 -5
3 -10 15 -10 26 0 10 -5 19 -11 19 -5 0 -8 4 -4 9 3 5 0 13 -6 17 -8 4 -7 9 2
15 11 7 10 9 -4 9 -9 0 -16 3 -16 8 5 29 -3 52 -18 52 -15 0 -16 2 -3 10 14 9
7 14 -13 11 -4 -1 -3 8 3 19 8 16 8 20 -4 20 -7 0 -17 7 -20 16 -6 15 -4 15
10 3 9 -7 5 4 -10 25 -14 21 -23 42 -20 47 3 5 -2 9 -12 9 -14 0 -15 2 -3 17
8 9 10 14 4 11 -5 -3 -19 4 -30 15 -11 11 -14 16 -6 12 11 -6 13 -4 8 9 -4 10
-7 20 -7 22 0 3 -5 2 -12 -2 -6 -4 -8 -3 -4 4 3 6 -1 17 -9 25 -8 9 -15 21
-15 27 0 6 -4 9 -8 6 -4 -2 -9 5 -9 16 -1 12 -6 24 -11 27 -5 3 -11 14 -15 24
-4 10 -11 16 -16 12 -6 -3 -8 4 -6 15 2 11 0 18 -6 15 -5 -4 -9 1 -9 9 0 9 -8
16 -17 16 -15 0 -16 2 -3 10 13 8 12 10 -2 10 -11 0 -18 8 -18 19 0 11 -9 26
-20 34 -11 8 -17 17 -14 20 4 4 -1 9 -10 13 -9 3 -16 17 -16 30 0 13 -5 24
-11 24 -5 0 -7 -4 -4 -10 3 -5 1 -10 -4 -10 -6 0 -11 8 -11 18 0 9 -9 23 -20
30 -12 7 -18 17 -15 22 3 6 -1 10 -10 10 -9 0 -14 3 -12 8 6 9 -19 33 -27 25
-5 -6 -7 4 -5 23 1 12 -44 43 -54 37 -6 -3 -7 -1 -3 6 8 12 -18 44 -28 34 -3
-4 -6 1 -6 10 0 10 -7 17 -15 17 -8 0 -15 7 -15 16 0 8 -4 12 -10 9 -5 -3 -10
2 -10 11 0 10 -3 14 -6 11 -4 -3 -19 7 -34 23 -16 17 -32 30 -38 30 -5 0 -13
7 -16 16 -3 8 -10 12 -16 9 -5 -3 -10 1 -10 10 0 9 -4 14 -8 11 -5 -3 -15 4
-22 15 -8 10 -20 19 -28 19 -7 0 -15 7 -19 16 -3 8 -12 13 -20 10 -8 -3 -12
-2 -9 3 7 11 -18 33 -27 24 -4 -3 -7 2 -7 11 0 13 -6 17 -20 13 -10 -3 -19 -2
-18 2 2 21 -5 29 -23 26 -12 -3 -19 -2 -16 1 10 11 -26 42 -44 39 -12 -2 -19
2 -19 11 0 9 -5 12 -12 8 -8 -5 -9 -2 -5 10 4 11 3 15 -4 10 -15 -9 -60 17
-52 30 4 6 -1 5 -10 -3 -15 -12 -17 -11 -17 2 0 10 -6 14 -15 11 -8 -4 -17 1
-21 9 -3 9 -12 13 -21 10 -11 -4 -14 -2 -9 5 6 11 0 14 -20 11 -4 0 -10 4 -13
9 -3 6 -17 12 -31 13 -30 5 -50 20 -42 34 3 6 -3 3 -13 -5 -11 -9 -16 -10 -11
-2 5 8 1 12 -11 12 -11 0 -25 6 -32 13 -11 10 -13 9 -7 -3 4 -8 0 -6 -9 5 -9
11 -21 19 -27 17 -5 -1 -17 3 -26 10 -13 11 -15 11 -8 -2 7 -13 6 -13 -6 0
-13 15 -27 20 -60 23 -10 1 -18 4 -18 8 0 4 -7 10 -16 13 -9 4 -13 2 -8 -5 5
-8 1 -8 -13 0 -11 6 -24 7 -28 3 -5 -4 -5 1 -2 11 4 9 2 17 -3 17 -6 0 -10 -5
-10 -11 0 -8 -4 -8 -12 -2 -7 6 -23 9 -35 8 -12 -1 -20 2 -17 7 3 4 -8 8 -23
8 -16 0 -35 6 -42 13 -11 10 -12 9 -5 -3 6 -11 1 -10 -20 4 -23 14 -28 15 -23
4 4 -13 1 -13 -18 -4 -13 6 -21 14 -19 17 5 9 -17 6 -33 -4 -8 -5 -13 -3 -13
3 0 6 -4 8 -10 5 -5 -3 -10 0 -11 7 0 7 -4 4 -9 -7 -5 -11 -9 -15 -9 -9 -1 7
-10 14 -21 17 -13 3 -18 1 -13 -6 4 -7 -4 -5 -18 4 -18 12 -30 14 -42 7 -12
-6 -17 -5 -17 3 0 9 -3 9 -14 0 -10 -9 -16 -9 -21 -1 -5 8 -11 8 -19 1 -7 -6
-16 -7 -20 -3 -13 12 -166 11 -166 -2 0 -8 -3 -8 -8 0 -8 14 -70 13 -91 0 -9
-6 -12 -5 -7 2 8 14 -36 12 -46 -3 -5 -7 -8 -6 -8 2 0 12 -17 12 -37 0 -8 -5
-13 -3 -13 4 0 9 -3 9 -14 0 -11 -9 -15 -9 -19 1 -4 10 -6 10 -6 -1z"/>
</g>
</svg>
